<?xml version="1.0" standalone="no"?>
<!DOCTYPE svg PUBLIC "-//W3C//DTD SVG 20010904//EN"
 "http://www.w3.org/TR/2001/REC-SVG-20010904/DTD/svg10.dtd">
<svg version="1.0" xmlns="http://www.w3.org/2000/svg"
 width="2134.000000pt" height="2135.000000pt" viewBox="0 0 2134.000000 2135.000000"
 preserveAspectRatio="xMidYMid meet">

<g transform="translate(0.000000,2135.000000) scale(0.100000,-0.100000)"
fill="#000000" stroke="none">
<path d="M13060 14210 c-1 -224 -79 -434 -243 -656 -28 -38 -292 -312 -587
-609 -338 -340 -560 -571 -599 -624 -112 -152 -184 -327 -211 -516 -12 -86
-13 -275 -2 -275 5 0 17 19 28 43 97 219 261 393 546 577 l93 60 3 -1317 c1
-781 -1 -1373 -7 -1452 -9 -125 -13 -140 -46 -207 -55 -113 -149 -180 -307
-221 -37 -10 -68 -21 -68 -25 0 -7 176 -224 448 -552 364 -438 636 -691 935
-868 114 -68 291 -152 308 -146 4 2 -17 68 -48 148 -167 436 -195 534 -212
735 -30 338 -46 705 -66 1435 -8 305 -18 646 -21 758 -5 137 -4 202 3 202 6 0
35 -26 64 -58 39 -41 181 -269 495 -792 243 -404 470 -784 504 -845 164 -287
273 -392 456 -440 32 -8 70 -15 84 -15 62 0 159 -126 144 -187 -22 -92 -91
-173 -174 -204 -82 -31 -275 -44 -441 -31 -74 5 -135 9 -137 7 -3 -3 379 -237
821 -502 394 -236 618 -348 877 -438 561 -195 1148 -201 1639 -19 181 68 413
198 564 317 l59 46 -34 6 c-19 4 -78 2 -131 -4 -216 -24 -513 -7 -702 40 -398
99 -767 321 -1080 650 -298 313 -1099 1276 -1887 2270 l-76 96 181 113 c841
524 842 524 942 525 81 0 124 -19 240 -110 l70 -54 3 30 c2 17 -4 81 -13 142
-65 453 -252 825 -632 1257 -112 127 -720 750 -732 750 -3 0 -22 -28 -41 -62
-19 -34 -64 -93 -99 -130 -121 -130 -284 -185 -511 -174 -198 10 -281 33 -333
96 -42 50 -43 96 -4 265 88 376 104 525 73 688 -19 95 -67 240 -105 314 l-30
58 -1 -95z m324 -1580 c260 -66 571 -296 768 -567 64 -88 154 -270 174 -353
11 -44 15 -93 12 -156 -3 -82 -8 -100 -41 -168 -81 -163 -254 -286 -466 -331
-92 -19 -270 -19 -389 0 -167 27 -271 74 -312 139 -46 76 -49 108 -51 753 -2
661 -3 648 53 687 32 23 157 21 252 -4z"/>
<path d="M5609 13361 c14 -10 38 -23 55 -29 17 -5 213 -66 436 -135 840 -261
1025 -340 1091 -468 24 -49 24 -120 0 -198 -33 -107 -1013 -2008 -1191 -2311
-162 -276 -335 -449 -544 -545 -39 -18 -90 -38 -113 -44 -24 -7 -43 -15 -43
-18 0 -4 13 -21 29 -38 52 -54 137 -181 178 -266 50 -102 77 -182 106 -308 22
-95 22 -105 19 -876 -3 -663 -1 -795 12 -880 41 -273 150 -500 351 -736 90
-105 259 -257 263 -236 2 8 -13 126 -32 263 -20 137 -40 299 -46 359 -47 504
73 914 425 1455 45 69 220 322 389 563 169 241 305 441 302 444 -9 10 -174
-52 -339 -127 -99 -45 -181 -76 -222 -83 -61 -10 -66 -10 -89 12 -31 30 -56
101 -56 161 0 83 220 703 313 885 135 261 355 452 692 603 122 54 480 181 487
172 3 -3 53 -342 112 -755 60 -412 111 -765 114 -782 l5 -33 61 0 c146 -1 224
-90 214 -242 -7 -94 -66 -211 -197 -388 -108 -146 -178 -269 -216 -379 -31
-93 -57 -251 -53 -326 l3 -60 69 87 c79 101 112 125 752 555 216 145 400 275
409 290 29 44 31 105 5 173 -18 49 -21 72 -16 118 10 83 58 214 146 402 138
292 160 395 125 596 -20 110 -63 239 -123 364 l-46 95 -7 -100 c-10 -159 -60
-278 -173 -416 -56 -68 -57 -67 -75 31 -7 36 -82 349 -168 695 -365 1484 -367
1496 -344 1675 7 55 25 129 44 179 58 154 142 259 301 377 119 89 285 226 285
237 1 4 -837 7 -1861 7 -1820 0 -1862 -1 -1839 -19z m2285 -878 c18 -92 117
-695 115 -697 -6 -5 -533 -45 -537 -41 -2 1 65 142 148 312 84 169 168 341
186 381 29 60 39 72 59 72 18 0 25 -7 29 -27z"/>
</g>
</svg>
